<svg xmlns="http://www.w3.org/2000/svg" style="display: none;">

    <symbol id="svg-icon-left-open-big" viewBox="0 0 512 512">
      <path d="m368 445c9 9 9 18 0 25c-8 9-17 9-24 0c0 0-201-202-201-202c-8-8-8-16 0-25c0 0 201-202 201-202c7-9 16-9 24 0c9 7 9 16 0 25c0 0-183 190-183 190c0 0 183 189 183 189"/>
    </symbol>

    <symbol id="svg-icon-angle-double-left" viewBox="0 0 512 512">
      <path d="m289 393c0 3-1 5-3 7l-14 14c-2 2-4 3-7 3-2 0-5-1-6-3l-134-133c-1-2-2-4-2-7 0-2 1-4 2-6l134-133c1-2 4-3 6-3 3 0 5 1 7 3l14 14c2 2 3 4 3 6 0 3-1 5-3 7l-112 112 112 113c2 1 3 4 3 6z m110 0c0 3-1 5-3 7l-15 14c-1 2-4 3-6 3-3 0-5-1-7-3l-133-133c-2-2-3-4-3-7 0-2 1-4 3-6l133-133c2-2 4-3 7-3 2 0 5 1 6 3l15 14c2 2 3 4 3 6 0 3-1 5-3 7l-113 112 113 113c2 1 3 4 3 6z"/>
    </symbol>

    <symbol id="svg-icon-angle-double-right" viewBox="0 0 512 512">
      <path d="m280 274c0 3-1 5-3 7l-133 133c-2 2-4 3-7 3-2 0-5-1-6-3l-15-14c-2-2-3-4-3-7 0-2 1-5 3-6l113-113-113-112c-2-2-3-4-3-7 0-2 1-4 3-6l15-14c1-2 4-3 6-3 3 0 5 1 7 3l133 133c2 2 3 4 3 6z m109 0c0 3-1 5-2 7l-134 133c-1 2-4 3-6 3-3 0-5-1-7-3l-14-14c-2-2-3-4-3-7 0-2 1-5 3-6l112-113-112-112c-2-2-3-4-3-7 0-2 1-4 3-6l14-14c2-2 4-3 7-3 2 0 5 1 6 3l134 133c1 2 2 4 2 6z"/>
    </symbol>

    <symbol id="svg-icon-angle-double-up" viewBox="0 0 512 512">
      <path d="m399 375c0 2-1 5-3 6l-15 15c-1 2-4 3-6 3-3 0-5-1-7-3l-112-113-112 113c-2 2-4 3-7 3-2 0-5-1-6-3l-15-15c-2-1-3-4-3-6 0-3 1-5 3-7l133-133c2-2 5-3 7-3 2 0 5 1 7 3l133 133c2 2 3 4 3 7z m0-110c0 3-1 5-3 7l-15 14c-1 2-4 3-6 3-3 0-5-1-7-3l-112-112-112 112c-2 2-4 3-7 3-2 0-5-1-6-3l-15-14c-2-2-3-4-3-7 0-2 1-5 3-6l133-134c2-1 5-2 7-2 2 0 5 1 7 2l133 134c2 1 3 4 3 6z"/>
    </symbol>

    <symbol id="svg-icon-angle-down" viewBox="0 0 512 512">
      <path d="m399 210c0 3-1 5-3 7l-133 133c-2 2-5 3-7 3-2 0-5-1-7-3l-133-133c-2-2-3-4-3-7 0-2 1-4 3-6l15-15c1-1 4-2 6-2 3 0 5 1 7 2l112 113 112-113c2-1 4-2 7-2 2 0 5 1 6 2l15 15c2 2 3 4 3 6z"/>
    </symbol>

    <symbol id="svg-icon-angle-left" viewBox="0 0 512 512">
      <path d="m344 155c0 3-1 5-3 7l-112 112 112 113c2 1 3 4 3 6 0 3-1 5-3 7l-14 14c-2 2-5 3-7 3-2 0-5-1-7-3l-133-133c-2-2-3-4-3-7 0-2 1-4 3-6l133-133c2-2 5-3 7-3 2 0 5 1 7 3l14 14c2 2 3 4 3 6z"/>
    </symbol>

    <symbol id="svg-icon-angle-right" viewBox="0 0 512 512">
      <path d="m335 274c0 3-1 5-3 7l-133 133c-2 2-5 3-7 3-2 0-5-1-7-3l-14-14c-2-2-3-4-3-7 0-2 1-5 3-6l112-113-112-112c-2-2-3-4-3-7 0-2 1-4 3-6l14-14c2-2 5-3 7-3 2 0 5 1 7 3l133 133c2 2 3 4 3 6z"/>
    </symbol>

</svg>
